{"title":"Marvel One Shot Item 47 2012 BRRip XviD AC3 &amp;ndash; MAGiX","uid":7560817,"size":308618090,"categoryP":"video","categoryS":"hd___movies","magnet":"?xt=urn:btih:f185405379fc0f3d573deb2256ca87f1d8eddde8&amp;dn=Marvel+One+Shot+Item+47+2012+BRRip+XviD+AC3+%26ndash%3B+MAGiX&amp;tr=udp%3A%2F%2Ftracker.openbittorrent.com%3A80&amp;tr=udp%3A%2F%2Fopen.demonii.com%3A1337&amp;tr=udp%3A%2F%2Ftracker.coppersurfer.tk%3A6969&amp;tr=udp%3A%2F%2Fexodus.desync.com%3A6969","seeders":0,"leechers":0,"uploader":"Gh0stNet","files":1,"time":1345732672,"description":"    ***PLOT***\n     a normal couple turned modern-day Bonnie and Clyde after they get their hands on one of the discarded alien guns. They end up putting the weapon to some less than noble use, so two S.H.I.E.L.D. agents, played by Maximiliano Hernandez (&quot;Thor,&quot; &quot;Marvel's The Avengers&quot;) and Titus Welliver (&quot;Lost&quot;), set out to relieve them of the out-of-this-world firearm.\n     \n     ***INFO***\n     Format                                   : AVI\n     Format/Info                              : Audio Video Interleave\n     File size                                : 294 MiB\n     Duration                                 : 11mn 20s\n     Overall bit rate                         : 3 626 Kbps\n     \n     \n     Video\n     ID                                       : 0\n     Format                                   : xvid\n     Codec ID                                 : xvid\n     Duration                                 : 11mn 20s\n     Bit rate                                 : 3 296 Kbps\n     Width                                    : 1 280 pixels\n     Height                                   : 528 pixels\n     Display aspect ratio                     : 2.40:1\n     Frame rate                               : 24.000 fps\n     Bits/(Pixel*Frame)                       : 0.203\n     Stream size                              : 267 MiB (91%)\n     \n     Audio\n     ID                                       : 1\n     Format                                   : AC-3\n     Format/Info                              : Audio Coding 3\n     Mode extension                           : CM (complete main)\n     Format settings, Endianness              : Big\n     Codec ID                                 : 2000\n     Duration                                 : 11mn 20s\n     Bit rate mode                            : Constant\n     Bit rate                                 : 320 Kbps\n     Channel positions                        : Front: L R\n     Sampling rate                            : 48.0 KHz\n     Bit depth                                : 16 bits\n     Compression mode                         : Lossy\n     Stream size                              : 26.0 MiB (9%)\n     Alignment                                : Aligned on interleaves\n     Interleave, duration                     : 32 ms (0.77 video frame)\n     Interleave, preload duration             : 32 ms \n\n","torrent":{"xt":"urn:btih:f185405379fc0f3d573deb2256ca87f1d8eddde8","amp;dn":"Marvel+One+Shot+Item+47+2012+BRRip+XviD+AC3+%26ndash%3B+MAGiX","amp;tr":["udp%3A%2F%2Ftracker.openbittorrent.com%3A80","udp%3A%2F%2Fopen.demonii.com%3A1337","udp%3A%2F%2Ftracker.coppersurfer.tk%3A6969","udp%3A%2F%2Fexodus.desync.com%3A6969"],"infoHash":"f185405379fc0f3d573deb2256ca87f1d8eddde8","infoHashBuffer":{"type":"Buffer","data":[241,133,64,83,121,252,15,61,87,61,235,34,86,202,135,241,216,237,221,232]},"announce":[],"urlList":[]}}